<svg id="visual" viewBox="0 0 900 600" width="900" height="600" xmlns="http://www.w3.org/2000/svg" xmlns:xlink="http://www.w3.org/1999/xlink" version="1.1"><rect x="0" y="0" width="900" height="600" fill="#FFFFFF"></rect><defs><linearGradient id="grad1_0" x1="33.3%" y1="0%" x2="100%" y2="100%"><stop offset="20%" stop-color="#4fdbf7" stop-opacity="1"></stop><stop offset="80%" stop-color="#4fdbf7" stop-opacity="1"></stop></linearGradient></defs><defs><linearGradient id="grad1_1" x1="33.3%" y1="0%" x2="100%" y2="100%"><stop offset="20%" stop-color="#4fdbf7" stop-opacity="1"></stop><stop offset="80%" stop-color="#b6edfb" stop-opacity="1"></stop></linearGradient></defs><defs><linearGradient id="grad1_2" x1="33.3%" y1="0%" x2="100%" y2="100%"><stop offset="20%" stop-color="#ffffff" stop-opacity="1"></stop><stop offset="80%" stop-color="#b6edfb" stop-opacity="1"></stop></linearGradient></defs><defs><linearGradient id="grad2_0" x1="0%" y1="0%" x2="66.7%" y2="100%"><stop offset="20%" stop-color="#4fdbf7" stop-opacity="1"></stop><stop offset="80%" stop-color="#4fdbf7" stop-opacity="1"></stop></linearGradient></defs><defs><linearGradient id="grad2_1" x1="0%" y1="0%" x2="66.7%" y2="100%"><stop offset="20%" stop-color="#b6edfb" stop-opacity="1"></stop><stop offset="80%" stop-color="#4fdbf7" stop-opacity="1"></stop></linearGradient></defs><defs><linearGradient id="grad2_2" x1="0%" y1="0%" x2="66.7%" y2="100%"><stop offset="20%" stop-color="#b6edfb" stop-opacity="1"></stop><stop offset="80%" stop-color="#ffffff" stop-opacity="1"></stop></linearGradient></defs><g transform="translate(900, 0)"><path d="M0 351.5C-62.8 343.1 -125.5 334.6 -175.8 304.4C-226 274.3 -263.8 222.4 -291 168C-318.2 113.6 -334.9 56.8 -351.5 0L0 0Z" fill="#dcf6fd"></path><path d="M0 234.4C-41.8 228.7 -83.7 223.1 -117.2 203C-150.7 182.8 -175.8 148.2 -194 112C-212.1 75.8 -223.2 37.9 -234.4 0L0 0Z" fill="#8be4f9"></path><path d="M0 117.2C-20.9 114.4 -41.8 111.5 -58.6 101.5C-75.3 91.4 -87.9 74.1 -97 56C-106.1 37.9 -111.6 18.9 -117.2 0L0 0Z" fill="#4fdbf7"></path></g><g transform="translate(0, 600)"><path d="M0 -351.5C64.4 -344 128.8 -336.5 175.8 -304.4C222.8 -272.4 252.5 -215.8 278.9 -161C305.3 -106.2 328.4 -53.1 351.5 0L0 0Z" fill="#dcf6fd"></path><path d="M0 -234.4C42.9 -229.3 85.8 -224.3 117.2 -203C148.5 -181.6 168.3 -143.9 185.9 -107.3C203.5 -70.8 218.9 -35.4 234.4 0L0 0Z" fill="#8be4f9"></path><path d="M0 -117.2C21.5 -114.7 42.9 -112.2 58.6 -101.5C74.3 -90.8 84.2 -71.9 93 -53.7C101.8 -35.4 109.5 -17.7 117.2 0L0 0Z" fill="#4fdbf7"></path></g></svg>