<svg id="visual" viewBox="0 0 900 600" width="900" height="600" xmlns="http://www.w3.org/2000/svg" xmlns:xlink="http://www.w3.org/1999/xlink" version="1.1"><rect x="0" y="0" width="900" height="600" fill="#FFFFFF"></rect><defs><linearGradient id="grad1_0" x1="33.3%" y1="100%" x2="100%" y2="0%"><stop offset="20%" stop-color="#ffffff" stop-opacity="1"></stop><stop offset="80%" stop-color="#ffffff" stop-opacity="1"></stop></linearGradient></defs><defs><linearGradient id="grad2_0" x1="0%" y1="100%" x2="66.7%" y2="0%"><stop offset="20%" stop-color="#ffffff" stop-opacity="1"></stop><stop offset="80%" stop-color="#ffffff" stop-opacity="1"></stop></linearGradient></defs><g transform="translate(900, 600)"><path d="M-351.5 0C-346.1 -68 -340.6 -135.9 -304.4 -175.8C-268.3 -215.6 -201.4 -227.4 -145.5 -252C-89.6 -276.6 -44.8 -314.1 0 -351.5L0 0Z" fill="#a7d9ef"></path></g><g transform="translate(0, 0)"><path d="M351.5 0C346.1 68.1 340.8 136.1 304.4 175.8C268.1 215.4 200.9 226.6 145 251.1C89.1 275.7 44.6 313.6 0 351.5L0 0Z" fill="#a7d9ef"></path></g></svg>